M48
; DRILL file {KiCad 9.0.3-9.0.3-0~ubuntu22.04.1} date 2025-08-10T09:21:33-0700
; FORMAT={-:-/ absolute / inch / decimal}
; #@! TF.CreationDate,2025-08-10T09:21:33-07:00
; #@! TF.GenerationSoftware,Kicad,Pcbnew,9.0.3-9.0.3-0~ubuntu22.04.1
; #@! TF.FileFunction,MixedPlating,1,2
FMAT,2
INCH
; #@! TA.AperFunction,Plated,PTH,ViaDrill
T1C0.0118
; #@! TA.AperFunction,Plated,PTH,ComponentDrill
T2C0.0354
; #@! TA.AperFunction,Plated,PTH,ComponentDrill
T3C0.0394
%
G90
G05
T1
X5.16Y-3.75
X5.56Y-3.58
X5.95Y-3.54
X6.16Y-3.57
X6.26Y-3.74
T2
X5.29Y-3.61
X5.29Y-3.71
T3
X4.66Y-4.13
X4.66Y-4.23
X4.76Y-4.13
X4.76Y-4.23
X4.86Y-4.13
X4.86Y-4.23
X4.96Y-4.13
X4.96Y-4.23
X5.06Y-4.13
X5.06Y-4.23
X5.16Y-4.13
X5.16Y-4.23
X5.26Y-4.13
X5.26Y-4.23
X5.36Y-4.13
X5.36Y-4.23
X5.46Y-4.13
X5.46Y-4.23
X5.56Y-4.13
X5.56Y-4.23
X5.66Y-4.13
X5.66Y-4.23
X5.76Y-4.13
X5.76Y-4.23
X5.86Y-4.13
X5.86Y-4.23
X5.96Y-4.13
X5.96Y-4.23
X6.06Y-4.13
X6.06Y-4.23
X6.16Y-4.13
X6.16Y-4.23
X6.26Y-4.13
X6.26Y-4.23
X6.36Y-4.13
X6.36Y-4.23
X6.46Y-4.13
X6.46Y-4.23
X6.56Y-4.13
X6.56Y-4.23
X6.66Y-4.13
X6.66Y-4.23
X6.76Y-4.13
X6.76Y-4.23
X6.86Y-4.13
X6.86Y-4.23
X6.96Y-4.13
X6.96Y-4.23
X7.06Y-4.13
X7.06Y-4.23
M30
