%TF.GenerationSoftware,KiCad,Pcbnew,9.0.3-9.0.3-0~ubuntu22.04.1*%
%TF.CreationDate,2025-08-10T09:26:02-07:00*%
%TF.ProjectId,SCSI_terminator,53435349-5f74-4657-926d-696e61746f72,rev?*%
%TF.SameCoordinates,Original*%
%TF.FileFunction,Legend,Bot*%
%TF.FilePolarity,Positive*%
%FSLAX46Y46*%
G04 Gerber Fmt 4.6, Leading zero omitted, Abs format (unit mm)*
G04 Created by KiCad (PCBNEW 9.0.3-9.0.3-0~ubuntu22.04.1) date 2025-08-10 09:26:02*
%MOMM*%
%LPD*%
G01*
G04 APERTURE LIST*
%ADD10C,0.127000*%
%ADD11C,0.100000*%
%ADD12C,0.152400*%
%ADD13C,0.120000*%
%TA.AperFunction,Profile*%
%ADD14C,0.050000*%
%TD*%
G04 APERTURE END LIST*
D10*
X178974352Y-110867056D02*
X179554924Y-110867056D01*
X179264638Y-110867056D02*
X179264638Y-109851056D01*
X179264638Y-109851056D02*
X179361400Y-109996199D01*
X179361400Y-109996199D02*
X179458162Y-110092961D01*
X179458162Y-110092961D02*
X179554924Y-110141342D01*
D11*
X116078000Y-102616000D02*
X181610000Y-102616000D01*
X116078000Y-109728000D02*
X116078000Y-102616000D01*
X146304000Y-109728000D02*
X116078000Y-109728000D01*
X146304000Y-108712000D02*
X146304000Y-109728000D01*
X151384000Y-108712000D02*
X146304000Y-108712000D01*
X151384000Y-109728000D02*
X151384000Y-108712000D01*
X181610000Y-109728000D02*
X151384000Y-109728000D01*
X181610000Y-102616000D02*
X181610000Y-109728000D01*
D10*
X128041305Y-111696427D02*
X128077590Y-111660141D01*
X128077590Y-111660141D02*
X128150162Y-111551284D01*
X128150162Y-111551284D02*
X128186448Y-111478713D01*
X128186448Y-111478713D02*
X128222733Y-111369856D01*
X128222733Y-111369856D02*
X128259019Y-111188427D01*
X128259019Y-111188427D02*
X128259019Y-111043284D01*
X128259019Y-111043284D02*
X128222733Y-110861856D01*
X128222733Y-110861856D02*
X128186448Y-110752998D01*
X128186448Y-110752998D02*
X128150162Y-110680427D01*
X128150162Y-110680427D02*
X128077590Y-110571570D01*
X128077590Y-110571570D02*
X128041305Y-110535284D01*
X127424448Y-111369856D02*
X127497019Y-111406141D01*
X127497019Y-111406141D02*
X127642162Y-111406141D01*
X127642162Y-111406141D02*
X127714733Y-111369856D01*
X127714733Y-111369856D02*
X127751019Y-111333570D01*
X127751019Y-111333570D02*
X127787305Y-111260998D01*
X127787305Y-111260998D02*
X127787305Y-111043284D01*
X127787305Y-111043284D02*
X127751019Y-110970713D01*
X127751019Y-110970713D02*
X127714733Y-110934427D01*
X127714733Y-110934427D02*
X127642162Y-110898141D01*
X127642162Y-110898141D02*
X127497019Y-110898141D01*
X127497019Y-110898141D02*
X127424448Y-110934427D01*
X127170447Y-111696427D02*
X127134162Y-111660141D01*
X127134162Y-111660141D02*
X127061590Y-111551284D01*
X127061590Y-111551284D02*
X127025305Y-111478713D01*
X127025305Y-111478713D02*
X126989019Y-111369856D01*
X126989019Y-111369856D02*
X126952733Y-111188427D01*
X126952733Y-111188427D02*
X126952733Y-111043284D01*
X126952733Y-111043284D02*
X126989019Y-110861856D01*
X126989019Y-110861856D02*
X127025305Y-110752998D01*
X127025305Y-110752998D02*
X127061590Y-110680427D01*
X127061590Y-110680427D02*
X127134162Y-110571570D01*
X127134162Y-110571570D02*
X127170447Y-110535284D01*
X126626162Y-110716713D02*
X126589876Y-110680427D01*
X126589876Y-110680427D02*
X126517305Y-110644141D01*
X126517305Y-110644141D02*
X126335876Y-110644141D01*
X126335876Y-110644141D02*
X126263305Y-110680427D01*
X126263305Y-110680427D02*
X126227019Y-110716713D01*
X126227019Y-110716713D02*
X126190733Y-110789284D01*
X126190733Y-110789284D02*
X126190733Y-110861856D01*
X126190733Y-110861856D02*
X126227019Y-110970713D01*
X126227019Y-110970713D02*
X126662447Y-111406141D01*
X126662447Y-111406141D02*
X126190733Y-111406141D01*
X125719019Y-110644141D02*
X125646448Y-110644141D01*
X125646448Y-110644141D02*
X125573876Y-110680427D01*
X125573876Y-110680427D02*
X125537591Y-110716713D01*
X125537591Y-110716713D02*
X125501305Y-110789284D01*
X125501305Y-110789284D02*
X125465019Y-110934427D01*
X125465019Y-110934427D02*
X125465019Y-111115856D01*
X125465019Y-111115856D02*
X125501305Y-111260998D01*
X125501305Y-111260998D02*
X125537591Y-111333570D01*
X125537591Y-111333570D02*
X125573876Y-111369856D01*
X125573876Y-111369856D02*
X125646448Y-111406141D01*
X125646448Y-111406141D02*
X125719019Y-111406141D01*
X125719019Y-111406141D02*
X125791591Y-111369856D01*
X125791591Y-111369856D02*
X125827876Y-111333570D01*
X125827876Y-111333570D02*
X125864162Y-111260998D01*
X125864162Y-111260998D02*
X125900448Y-111115856D01*
X125900448Y-111115856D02*
X125900448Y-110934427D01*
X125900448Y-110934427D02*
X125864162Y-110789284D01*
X125864162Y-110789284D02*
X125827876Y-110716713D01*
X125827876Y-110716713D02*
X125791591Y-110680427D01*
X125791591Y-110680427D02*
X125719019Y-110644141D01*
X125174734Y-110716713D02*
X125138448Y-110680427D01*
X125138448Y-110680427D02*
X125065877Y-110644141D01*
X125065877Y-110644141D02*
X124884448Y-110644141D01*
X124884448Y-110644141D02*
X124811877Y-110680427D01*
X124811877Y-110680427D02*
X124775591Y-110716713D01*
X124775591Y-110716713D02*
X124739305Y-110789284D01*
X124739305Y-110789284D02*
X124739305Y-110861856D01*
X124739305Y-110861856D02*
X124775591Y-110970713D01*
X124775591Y-110970713D02*
X125211019Y-111406141D01*
X125211019Y-111406141D02*
X124739305Y-111406141D01*
X124049877Y-110644141D02*
X124412734Y-110644141D01*
X124412734Y-110644141D02*
X124449020Y-111006998D01*
X124449020Y-111006998D02*
X124412734Y-110970713D01*
X124412734Y-110970713D02*
X124340163Y-110934427D01*
X124340163Y-110934427D02*
X124158734Y-110934427D01*
X124158734Y-110934427D02*
X124086163Y-110970713D01*
X124086163Y-110970713D02*
X124049877Y-111006998D01*
X124049877Y-111006998D02*
X124013591Y-111079570D01*
X124013591Y-111079570D02*
X124013591Y-111260998D01*
X124013591Y-111260998D02*
X124049877Y-111333570D01*
X124049877Y-111333570D02*
X124086163Y-111369856D01*
X124086163Y-111369856D02*
X124158734Y-111406141D01*
X124158734Y-111406141D02*
X124340163Y-111406141D01*
X124340163Y-111406141D02*
X124412734Y-111369856D01*
X124412734Y-111369856D02*
X124449020Y-111333570D01*
X122888735Y-110644141D02*
X122888735Y-111188427D01*
X122888735Y-111188427D02*
X122925020Y-111297284D01*
X122925020Y-111297284D02*
X122997592Y-111369856D01*
X122997592Y-111369856D02*
X123106449Y-111406141D01*
X123106449Y-111406141D02*
X123179020Y-111406141D01*
X122199307Y-111406141D02*
X122199307Y-111006998D01*
X122199307Y-111006998D02*
X122235592Y-110934427D01*
X122235592Y-110934427D02*
X122308164Y-110898141D01*
X122308164Y-110898141D02*
X122453307Y-110898141D01*
X122453307Y-110898141D02*
X122525878Y-110934427D01*
X122199307Y-111369856D02*
X122271878Y-111406141D01*
X122271878Y-111406141D02*
X122453307Y-111406141D01*
X122453307Y-111406141D02*
X122525878Y-111369856D01*
X122525878Y-111369856D02*
X122562164Y-111297284D01*
X122562164Y-111297284D02*
X122562164Y-111224713D01*
X122562164Y-111224713D02*
X122525878Y-111152141D01*
X122525878Y-111152141D02*
X122453307Y-111115856D01*
X122453307Y-111115856D02*
X122271878Y-111115856D01*
X122271878Y-111115856D02*
X122199307Y-111079570D01*
X121836449Y-111406141D02*
X121836449Y-110898141D01*
X121836449Y-110970713D02*
X121800163Y-110934427D01*
X121800163Y-110934427D02*
X121727592Y-110898141D01*
X121727592Y-110898141D02*
X121618735Y-110898141D01*
X121618735Y-110898141D02*
X121546163Y-110934427D01*
X121546163Y-110934427D02*
X121509878Y-111006998D01*
X121509878Y-111006998D02*
X121509878Y-111406141D01*
X121509878Y-111006998D02*
X121473592Y-110934427D01*
X121473592Y-110934427D02*
X121401020Y-110898141D01*
X121401020Y-110898141D02*
X121292163Y-110898141D01*
X121292163Y-110898141D02*
X121219592Y-110934427D01*
X121219592Y-110934427D02*
X121183306Y-111006998D01*
X121183306Y-111006998D02*
X121183306Y-111406141D01*
X120530163Y-111369856D02*
X120602735Y-111406141D01*
X120602735Y-111406141D02*
X120747878Y-111406141D01*
X120747878Y-111406141D02*
X120820449Y-111369856D01*
X120820449Y-111369856D02*
X120856735Y-111297284D01*
X120856735Y-111297284D02*
X120856735Y-111006998D01*
X120856735Y-111006998D02*
X120820449Y-110934427D01*
X120820449Y-110934427D02*
X120747878Y-110898141D01*
X120747878Y-110898141D02*
X120602735Y-110898141D01*
X120602735Y-110898141D02*
X120530163Y-110934427D01*
X120530163Y-110934427D02*
X120493878Y-111006998D01*
X120493878Y-111006998D02*
X120493878Y-111079570D01*
X120493878Y-111079570D02*
X120856735Y-111152141D01*
X120203592Y-111369856D02*
X120131020Y-111406141D01*
X120131020Y-111406141D02*
X119985877Y-111406141D01*
X119985877Y-111406141D02*
X119913306Y-111369856D01*
X119913306Y-111369856D02*
X119877020Y-111297284D01*
X119877020Y-111297284D02*
X119877020Y-111260998D01*
X119877020Y-111260998D02*
X119913306Y-111188427D01*
X119913306Y-111188427D02*
X119985877Y-111152141D01*
X119985877Y-111152141D02*
X120094735Y-111152141D01*
X120094735Y-111152141D02*
X120167306Y-111115856D01*
X120167306Y-111115856D02*
X120203592Y-111043284D01*
X120203592Y-111043284D02*
X120203592Y-111006998D01*
X120203592Y-111006998D02*
X120167306Y-110934427D01*
X120167306Y-110934427D02*
X120094735Y-110898141D01*
X120094735Y-110898141D02*
X119985877Y-110898141D01*
X119985877Y-110898141D02*
X119913306Y-110934427D01*
X119006164Y-111369856D02*
X118897307Y-111406141D01*
X118897307Y-111406141D02*
X118715878Y-111406141D01*
X118715878Y-111406141D02*
X118643307Y-111369856D01*
X118643307Y-111369856D02*
X118607021Y-111333570D01*
X118607021Y-111333570D02*
X118570735Y-111260998D01*
X118570735Y-111260998D02*
X118570735Y-111188427D01*
X118570735Y-111188427D02*
X118607021Y-111115856D01*
X118607021Y-111115856D02*
X118643307Y-111079570D01*
X118643307Y-111079570D02*
X118715878Y-111043284D01*
X118715878Y-111043284D02*
X118861021Y-111006998D01*
X118861021Y-111006998D02*
X118933592Y-110970713D01*
X118933592Y-110970713D02*
X118969878Y-110934427D01*
X118969878Y-110934427D02*
X119006164Y-110861856D01*
X119006164Y-110861856D02*
X119006164Y-110789284D01*
X119006164Y-110789284D02*
X118969878Y-110716713D01*
X118969878Y-110716713D02*
X118933592Y-110680427D01*
X118933592Y-110680427D02*
X118861021Y-110644141D01*
X118861021Y-110644141D02*
X118679592Y-110644141D01*
X118679592Y-110644141D02*
X118570735Y-110680427D01*
X118316735Y-110898141D02*
X118171593Y-111406141D01*
X118171593Y-111406141D02*
X118026450Y-111043284D01*
X118026450Y-111043284D02*
X117881307Y-111406141D01*
X117881307Y-111406141D02*
X117736164Y-110898141D01*
X117155592Y-111369856D02*
X117228164Y-111406141D01*
X117228164Y-111406141D02*
X117373307Y-111406141D01*
X117373307Y-111406141D02*
X117445878Y-111369856D01*
X117445878Y-111369856D02*
X117482164Y-111297284D01*
X117482164Y-111297284D02*
X117482164Y-111006998D01*
X117482164Y-111006998D02*
X117445878Y-110934427D01*
X117445878Y-110934427D02*
X117373307Y-110898141D01*
X117373307Y-110898141D02*
X117228164Y-110898141D01*
X117228164Y-110898141D02*
X117155592Y-110934427D01*
X117155592Y-110934427D02*
X117119307Y-111006998D01*
X117119307Y-111006998D02*
X117119307Y-111079570D01*
X117119307Y-111079570D02*
X117482164Y-111152141D01*
X116502449Y-111369856D02*
X116575021Y-111406141D01*
X116575021Y-111406141D02*
X116720164Y-111406141D01*
X116720164Y-111406141D02*
X116792735Y-111369856D01*
X116792735Y-111369856D02*
X116829021Y-111297284D01*
X116829021Y-111297284D02*
X116829021Y-111006998D01*
X116829021Y-111006998D02*
X116792735Y-110934427D01*
X116792735Y-110934427D02*
X116720164Y-110898141D01*
X116720164Y-110898141D02*
X116575021Y-110898141D01*
X116575021Y-110898141D02*
X116502449Y-110934427D01*
X116502449Y-110934427D02*
X116466164Y-111006998D01*
X116466164Y-111006998D02*
X116466164Y-111079570D01*
X116466164Y-111079570D02*
X116829021Y-111152141D01*
X116248449Y-110898141D02*
X115958163Y-110898141D01*
X116139592Y-110644141D02*
X116139592Y-111297284D01*
X116139592Y-111297284D02*
X116103306Y-111369856D01*
X116103306Y-111369856D02*
X116030735Y-111406141D01*
X116030735Y-111406141D02*
X115958163Y-111406141D01*
X149087019Y-102262141D02*
X149087019Y-101500141D01*
X149087019Y-101500141D02*
X148833019Y-102044427D01*
X148833019Y-102044427D02*
X148579019Y-101500141D01*
X148579019Y-101500141D02*
X148579019Y-102262141D01*
D12*
X182202666Y-101300095D02*
X182202666Y-102025810D01*
X182202666Y-102025810D02*
X182251047Y-102170953D01*
X182251047Y-102170953D02*
X182347809Y-102267715D01*
X182347809Y-102267715D02*
X182492952Y-102316095D01*
X182492952Y-102316095D02*
X182589714Y-102316095D01*
X181186666Y-102316095D02*
X181767238Y-102316095D01*
X181476952Y-102316095D02*
X181476952Y-101300095D01*
X181476952Y-101300095D02*
X181573714Y-101445238D01*
X181573714Y-101445238D02*
X181670476Y-101542000D01*
X181670476Y-101542000D02*
X181767238Y-101590381D01*
D13*
%TO.C,D1*%
X136866001Y-92964000D02*
G75*
G02*
X131866001Y-92964000I-2500000J0D01*
G01*
X131866001Y-92964000D02*
G75*
G02*
X136866001Y-92964000I2500000J0D01*
G01*
X134366463Y-95954000D02*
G75*
G02*
X132821171Y-90404000I-462J2990000D01*
G01*
X135910831Y-90404000D02*
G75*
G02*
X134365539Y-95954000I-1544830J-2560000D01*
G01*
X135911001Y-90404000D02*
X132821001Y-90404000D01*
%TD*%
D14*
X114549296Y-89918700D02*
X114551226Y-110986711D01*
X181599771Y-112525756D02*
X116138760Y-112522000D01*
X183134000Y-89916000D02*
X183133789Y-111001756D01*
X116073296Y-88394667D02*
X181610000Y-88392000D01*
X114549296Y-89918667D02*
G75*
G02*
X116073296Y-88394667I1523999J1D01*
G01*
X116075226Y-112523326D02*
G75*
G02*
X114551226Y-110999326I-1J1523999D01*
G01*
X183133789Y-111001756D02*
G75*
G02*
X181609789Y-112525756I-1523999J-1D01*
G01*
X181610000Y-88392000D02*
G75*
G02*
X183134000Y-89916000I0J-1524000D01*
G01*
M02*
