%TF.GenerationSoftware,KiCad,Pcbnew,9.0.3-9.0.3-0~ubuntu22.04.1*%
%TF.CreationDate,2025-08-10T09:26:03-07:00*%
%TF.ProjectId,SCSI_terminator,53435349-5f74-4657-926d-696e61746f72,rev?*%
%TF.SameCoordinates,Original*%
%TF.FileFunction,Soldermask,Bot*%
%TF.FilePolarity,Negative*%
%FSLAX46Y46*%
G04 Gerber Fmt 4.6, Leading zero omitted, Abs format (unit mm)*
G04 Created by KiCad (PCBNEW 9.0.3-9.0.3-0~ubuntu22.04.1) date 2025-08-10 09:26:03*
%MOMM*%
%LPD*%
G01*
G04 APERTURE LIST*
%ADD10R,1.700000X1.700000*%
%ADD11O,1.700000X1.700000*%
%ADD12R,1.800000X1.800000*%
%ADD13C,1.800000*%
%TA.AperFunction,Profile*%
%ADD14C,0.050000*%
%TD*%
G04 APERTURE END LIST*
D10*
%TO.C,J1*%
X179324000Y-107442000D03*
D11*
X179324000Y-104902000D03*
X176784000Y-107442000D03*
X176784000Y-104902000D03*
X174244000Y-107442000D03*
X174244000Y-104902000D03*
X171704000Y-107442000D03*
X171704000Y-104902000D03*
X169164000Y-107442000D03*
X169164000Y-104902000D03*
X166624000Y-107442000D03*
X166624000Y-104902000D03*
X164084000Y-107442000D03*
X164084000Y-104902000D03*
X161544000Y-107442000D03*
X161544000Y-104902000D03*
X159004000Y-107442000D03*
X159004000Y-104902000D03*
X156464000Y-107442000D03*
X156464000Y-104902000D03*
X153924000Y-107442000D03*
X153924000Y-104902000D03*
X151384000Y-107442000D03*
X151384000Y-104902000D03*
X148844000Y-107442000D03*
X148844000Y-104902000D03*
X146304000Y-107442000D03*
X146304000Y-104902000D03*
X143764000Y-107442000D03*
X143764000Y-104902000D03*
X141224000Y-107442000D03*
X141224000Y-104902000D03*
X138684000Y-107442000D03*
X138684000Y-104902000D03*
X136144000Y-107442000D03*
X136144000Y-104902000D03*
X133604000Y-107442000D03*
X133604000Y-104902000D03*
X131064000Y-107442000D03*
X131064000Y-104902000D03*
X128524000Y-107442000D03*
X128524000Y-104902000D03*
X125984000Y-107442000D03*
X125984000Y-104902000D03*
X123444000Y-107442000D03*
X123444000Y-104902000D03*
X120904000Y-107442000D03*
X120904000Y-104902000D03*
X118364000Y-107442000D03*
X118364000Y-104902000D03*
%TD*%
D12*
%TO.C,D1*%
X134366000Y-91694000D03*
D13*
X134366000Y-94234000D03*
%TD*%
D14*
X114549296Y-89918700D02*
X114551226Y-110986711D01*
X181599771Y-112525756D02*
X116138760Y-112522000D01*
X183134000Y-89916000D02*
X183133789Y-111001756D01*
X116073296Y-88394667D02*
X181610000Y-88392000D01*
X114549296Y-89918667D02*
G75*
G02*
X116073296Y-88394667I1523999J1D01*
G01*
X116075226Y-112523326D02*
G75*
G02*
X114551226Y-110999326I-1J1523999D01*
G01*
X183133789Y-111001756D02*
G75*
G02*
X181609789Y-112525756I-1523999J-1D01*
G01*
X181610000Y-88392000D02*
G75*
G02*
X183134000Y-89916000I0J-1524000D01*
G01*
M02*
