%TF.GenerationSoftware,KiCad,Pcbnew,9.0.3-9.0.3-0~ubuntu22.04.1*%
%TF.CreationDate,2025-08-10T09:26:02-07:00*%
%TF.ProjectId,SCSI_terminator,53435349-5f74-4657-926d-696e61746f72,rev?*%
%TF.SameCoordinates,Original*%
%TF.FileFunction,Soldermask,Top*%
%TF.FilePolarity,Negative*%
%FSLAX46Y46*%
G04 Gerber Fmt 4.6, Leading zero omitted, Abs format (unit mm)*
G04 Created by KiCad (PCBNEW 9.0.3-9.0.3-0~ubuntu22.04.1) date 2025-08-10 09:26:02*
%MOMM*%
%LPD*%
G01*
G04 APERTURE LIST*
G04 Aperture macros list*
%AMRoundRect*
0 Rectangle with rounded corners*
0 $1 Rounding radius*
0 $2 $3 $4 $5 $6 $7 $8 $9 X,Y pos of 4 corners*
0 Add a 4 corners polygon primitive as box body*
4,1,4,$2,$3,$4,$5,$6,$7,$8,$9,$2,$3,0*
0 Add four circle primitives for the rounded corners*
1,1,$1+$1,$2,$3*
1,1,$1+$1,$4,$5*
1,1,$1+$1,$6,$7*
1,1,$1+$1,$8,$9*
0 Add four rect primitives between the rounded corners*
20,1,$1+$1,$2,$3,$4,$5,0*
20,1,$1+$1,$4,$5,$6,$7,0*
20,1,$1+$1,$6,$7,$8,$9,0*
20,1,$1+$1,$8,$9,$2,$3,0*%
G04 Aperture macros list end*
%ADD10R,1.700000X1.700000*%
%ADD11O,1.700000X1.700000*%
%ADD12R,1.800000X1.800000*%
%ADD13C,1.800000*%
%ADD14RoundRect,0.200000X0.275000X-0.200000X0.275000X0.200000X-0.275000X0.200000X-0.275000X-0.200000X0*%
%ADD15RoundRect,0.375000X-0.375000X0.625000X-0.375000X-0.625000X0.375000X-0.625000X0.375000X0.625000X0*%
%ADD16RoundRect,0.500000X-1.400000X0.500000X-1.400000X-0.500000X1.400000X-0.500000X1.400000X0.500000X0*%
%ADD17RoundRect,0.250000X0.425000X-0.450000X0.425000X0.450000X-0.425000X0.450000X-0.425000X-0.450000X0*%
%ADD18RoundRect,0.200000X-0.275000X0.200000X-0.275000X-0.200000X0.275000X-0.200000X0.275000X0.200000X0*%
%ADD19RoundRect,0.225000X0.250000X-0.225000X0.250000X0.225000X-0.250000X0.225000X-0.250000X-0.225000X0*%
%TA.AperFunction,Profile*%
%ADD20C,0.050000*%
%TD*%
G04 APERTURE END LIST*
D10*
%TO.C,J1*%
X179324000Y-107442000D03*
D11*
X179324000Y-104902000D03*
X176784000Y-107442000D03*
X176784000Y-104902000D03*
X174244000Y-107442000D03*
X174244000Y-104902000D03*
X171704000Y-107442000D03*
X171704000Y-104902000D03*
X169164000Y-107442000D03*
X169164000Y-104902000D03*
X166624000Y-107442000D03*
X166624000Y-104902000D03*
X164084000Y-107442000D03*
X164084000Y-104902000D03*
X161544000Y-107442000D03*
X161544000Y-104902000D03*
X159004000Y-107442000D03*
X159004000Y-104902000D03*
X156464000Y-107442000D03*
X156464000Y-104902000D03*
X153924000Y-107442000D03*
X153924000Y-104902000D03*
X151384000Y-107442000D03*
X151384000Y-104902000D03*
X148844000Y-107442000D03*
X148844000Y-104902000D03*
X146304000Y-107442000D03*
X146304000Y-104902000D03*
X143764000Y-107442000D03*
X143764000Y-104902000D03*
X141224000Y-107442000D03*
X141224000Y-104902000D03*
X138684000Y-107442000D03*
X138684000Y-104902000D03*
X136144000Y-107442000D03*
X136144000Y-104902000D03*
X133604000Y-107442000D03*
X133604000Y-104902000D03*
X131064000Y-107442000D03*
X131064000Y-104902000D03*
X128524000Y-107442000D03*
X128524000Y-104902000D03*
X125984000Y-107442000D03*
X125984000Y-104902000D03*
X123444000Y-107442000D03*
X123444000Y-104902000D03*
X120904000Y-107442000D03*
X120904000Y-104902000D03*
X118364000Y-107442000D03*
X118364000Y-104902000D03*
%TD*%
D12*
%TO.C,D1*%
X134366000Y-91694000D03*
D13*
X134366000Y-94234000D03*
%TD*%
D14*
%TO.C,R6*%
X166624000Y-100901000D03*
X166624000Y-99251000D03*
%TD*%
%TO.C,R17*%
X123444000Y-100901000D03*
X123444000Y-99251000D03*
%TD*%
%TO.C,R7*%
X164084000Y-100901000D03*
X164084000Y-99251000D03*
%TD*%
%TO.C,R1*%
X179324000Y-100901000D03*
X179324000Y-99251000D03*
%TD*%
%TO.C,R8*%
X161544000Y-100901000D03*
X161544000Y-99251000D03*
%TD*%
D15*
%TO.C,U1*%
X151144000Y-92252000D03*
X148844000Y-92252000D03*
D16*
X148844000Y-98552000D03*
D15*
X146544000Y-92252000D03*
%TD*%
D14*
%TO.C,R16*%
X125984000Y-100901000D03*
X125984000Y-99251000D03*
%TD*%
%TO.C,R14*%
X131064000Y-100901000D03*
X131064000Y-99251000D03*
%TD*%
%TO.C,R18*%
X120904000Y-100901000D03*
X120904000Y-99251000D03*
%TD*%
D17*
%TO.C,C2*%
X156464000Y-94902000D03*
X156464000Y-92202000D03*
%TD*%
D18*
%TO.C,R10*%
X138684000Y-93726000D03*
X138684000Y-95376000D03*
%TD*%
D14*
%TO.C,R12*%
X136144000Y-100901000D03*
X136144000Y-99251000D03*
%TD*%
D19*
%TO.C,C4*%
X159004000Y-97790000D03*
X159004000Y-96240000D03*
%TD*%
D14*
%TO.C,R3*%
X174244000Y-100901000D03*
X174244000Y-99251000D03*
%TD*%
%TO.C,R19*%
X118364000Y-100901000D03*
X118364000Y-99251000D03*
%TD*%
%TO.C,R9*%
X159004000Y-100901000D03*
X159004000Y-99251000D03*
%TD*%
%TO.C,R15*%
X128524000Y-100901000D03*
X128524000Y-99251000D03*
%TD*%
%TO.C,R13*%
X133604000Y-100901000D03*
X133604000Y-99251000D03*
%TD*%
%TO.C,R4*%
X171704000Y-100901000D03*
X171704000Y-99251000D03*
%TD*%
%TO.C,R5*%
X169164000Y-100901000D03*
X169164000Y-99251000D03*
%TD*%
D17*
%TO.C,C1*%
X141224000Y-94902000D03*
X141224000Y-92202000D03*
%TD*%
D14*
%TO.C,R2*%
X176784000Y-100901000D03*
X176784000Y-99251000D03*
%TD*%
%TO.C,R11*%
X139446000Y-100901000D03*
X139446000Y-99251000D03*
%TD*%
D19*
%TO.C,C3*%
X131064000Y-97790000D03*
X131064000Y-96240000D03*
%TD*%
D20*
X114549296Y-89918700D02*
X114551226Y-110986711D01*
X181599771Y-112525756D02*
X116138760Y-112522000D01*
X183134000Y-89916000D02*
X183133789Y-111001756D01*
X116073296Y-88394667D02*
X181610000Y-88392000D01*
X114549296Y-89918667D02*
G75*
G02*
X116073296Y-88394667I1523999J1D01*
G01*
X116075226Y-112523326D02*
G75*
G02*
X114551226Y-110999326I-1J1523999D01*
G01*
X183133789Y-111001756D02*
G75*
G02*
X181609789Y-112525756I-1523999J-1D01*
G01*
X181610000Y-88392000D02*
G75*
G02*
X183134000Y-89916000I0J-1524000D01*
G01*
M02*
