%TF.GenerationSoftware,KiCad,Pcbnew,9.0.3-9.0.3-0~ubuntu22.04.1*%
%TF.CreationDate,2025-08-10T09:26:02-07:00*%
%TF.ProjectId,SCSI_terminator,53435349-5f74-4657-926d-696e61746f72,rev?*%
%TF.SameCoordinates,Original*%
%TF.FileFunction,Copper,L1,Top*%
%TF.FilePolarity,Positive*%
%FSLAX46Y46*%
G04 Gerber Fmt 4.6, Leading zero omitted, Abs format (unit mm)*
G04 Created by KiCad (PCBNEW 9.0.3-9.0.3-0~ubuntu22.04.1) date 2025-08-10 09:26:02*
%MOMM*%
%LPD*%
G01*
G04 APERTURE LIST*
G04 Aperture macros list*
%AMRoundRect*
0 Rectangle with rounded corners*
0 $1 Rounding radius*
0 $2 $3 $4 $5 $6 $7 $8 $9 X,Y pos of 4 corners*
0 Add a 4 corners polygon primitive as box body*
4,1,4,$2,$3,$4,$5,$6,$7,$8,$9,$2,$3,0*
0 Add four circle primitives for the rounded corners*
1,1,$1+$1,$2,$3*
1,1,$1+$1,$4,$5*
1,1,$1+$1,$6,$7*
1,1,$1+$1,$8,$9*
0 Add four rect primitives between the rounded corners*
20,1,$1+$1,$2,$3,$4,$5,0*
20,1,$1+$1,$4,$5,$6,$7,0*
20,1,$1+$1,$6,$7,$8,$9,0*
20,1,$1+$1,$8,$9,$2,$3,0*%
G04 Aperture macros list end*
%TA.AperFunction,ComponentPad*%
%ADD10R,1.700000X1.700000*%
%TD*%
%TA.AperFunction,ComponentPad*%
%ADD11O,1.700000X1.700000*%
%TD*%
%TA.AperFunction,ComponentPad*%
%ADD12R,1.800000X1.800000*%
%TD*%
%TA.AperFunction,ComponentPad*%
%ADD13C,1.800000*%
%TD*%
%TA.AperFunction,SMDPad,CuDef*%
%ADD14RoundRect,0.200000X0.275000X-0.200000X0.275000X0.200000X-0.275000X0.200000X-0.275000X-0.200000X0*%
%TD*%
%TA.AperFunction,SMDPad,CuDef*%
%ADD15RoundRect,0.375000X-0.375000X0.625000X-0.375000X-0.625000X0.375000X-0.625000X0.375000X0.625000X0*%
%TD*%
%TA.AperFunction,SMDPad,CuDef*%
%ADD16RoundRect,0.500000X-1.400000X0.500000X-1.400000X-0.500000X1.400000X-0.500000X1.400000X0.500000X0*%
%TD*%
%TA.AperFunction,SMDPad,CuDef*%
%ADD17RoundRect,0.250000X0.425000X-0.450000X0.425000X0.450000X-0.425000X0.450000X-0.425000X-0.450000X0*%
%TD*%
%TA.AperFunction,SMDPad,CuDef*%
%ADD18RoundRect,0.200000X-0.275000X0.200000X-0.275000X-0.200000X0.275000X-0.200000X0.275000X0.200000X0*%
%TD*%
%TA.AperFunction,SMDPad,CuDef*%
%ADD19RoundRect,0.225000X0.250000X-0.225000X0.250000X0.225000X-0.250000X0.225000X-0.250000X-0.225000X0*%
%TD*%
%TA.AperFunction,ViaPad*%
%ADD20C,0.600000*%
%TD*%
%TA.AperFunction,Conductor*%
%ADD21C,0.762000*%
%TD*%
%TA.AperFunction,Conductor*%
%ADD22C,0.508000*%
%TD*%
%TA.AperFunction,Conductor*%
%ADD23C,1.397000*%
%TD*%
%TA.AperFunction,Profile*%
%ADD24C,0.050000*%
%TD*%
G04 APERTURE END LIST*
D10*
%TO.P,J1,1,Pin_1*%
%TO.N,GND*%
X179324000Y-107442000D03*
D11*
%TO.P,J1,2,Pin_2*%
%TO.N,Net-(J1-Pin_2)*%
X179324000Y-104902000D03*
%TO.P,J1,3,Pin_3*%
%TO.N,GND*%
X176784000Y-107442000D03*
%TO.P,J1,4,Pin_4*%
%TO.N,Net-(J1-Pin_4)*%
X176784000Y-104902000D03*
%TO.P,J1,5,Pin_5*%
%TO.N,GND*%
X174244000Y-107442000D03*
%TO.P,J1,6,Pin_6*%
%TO.N,Net-(J1-Pin_6)*%
X174244000Y-104902000D03*
%TO.P,J1,7,Pin_7*%
%TO.N,GND*%
X171704000Y-107442000D03*
%TO.P,J1,8,Pin_8*%
%TO.N,Net-(J1-Pin_8)*%
X171704000Y-104902000D03*
%TO.P,J1,9,Pin_9*%
%TO.N,GND*%
X169164000Y-107442000D03*
%TO.P,J1,10,Pin_10*%
%TO.N,Net-(J1-Pin_10)*%
X169164000Y-104902000D03*
%TO.P,J1,11,Pin_11*%
%TO.N,GND*%
X166624000Y-107442000D03*
%TO.P,J1,12,Pin_12*%
%TO.N,Net-(J1-Pin_12)*%
X166624000Y-104902000D03*
%TO.P,J1,13,Pin_13*%
%TO.N,GND*%
X164084000Y-107442000D03*
%TO.P,J1,14,Pin_14*%
%TO.N,Net-(J1-Pin_14)*%
X164084000Y-104902000D03*
%TO.P,J1,15,Pin_15*%
%TO.N,GND*%
X161544000Y-107442000D03*
%TO.P,J1,16,Pin_16*%
%TO.N,Net-(J1-Pin_16)*%
X161544000Y-104902000D03*
%TO.P,J1,17,Pin_17*%
%TO.N,GND*%
X159004000Y-107442000D03*
%TO.P,J1,18,Pin_18*%
%TO.N,Net-(J1-Pin_18)*%
X159004000Y-104902000D03*
%TO.P,J1,19,Pin_19*%
%TO.N,GND*%
X156464000Y-107442000D03*
%TO.P,J1,20,Pin_20*%
X156464000Y-104902000D03*
%TO.P,J1,21,Pin_21*%
X153924000Y-107442000D03*
%TO.P,J1,22,Pin_22*%
X153924000Y-104902000D03*
%TO.P,J1,23,Pin_23*%
X151384000Y-107442000D03*
%TO.P,J1,24,Pin_24*%
X151384000Y-104902000D03*
%TO.P,J1,25,Pin_25*%
%TO.N,unconnected-(J1-Pin_25-Pad25)*%
X148844000Y-107442000D03*
%TO.P,J1,26,Pin_26*%
%TO.N,TRM_PWR*%
X148844000Y-104902000D03*
%TO.P,J1,27,Pin_27*%
%TO.N,GND*%
X146304000Y-107442000D03*
%TO.P,J1,28,Pin_28*%
X146304000Y-104902000D03*
%TO.P,J1,29,Pin_29*%
X143764000Y-107442000D03*
%TO.P,J1,30,Pin_30*%
X143764000Y-104902000D03*
%TO.P,J1,31,Pin_31*%
X141224000Y-107442000D03*
%TO.P,J1,32,Pin_32*%
%TO.N,Net-(J1-Pin_32)*%
X141224000Y-104902000D03*
%TO.P,J1,33,Pin_33*%
%TO.N,GND*%
X138684000Y-107442000D03*
%TO.P,J1,34,Pin_34*%
X138684000Y-104902000D03*
%TO.P,J1,35,Pin_35*%
X136144000Y-107442000D03*
%TO.P,J1,36,Pin_36*%
%TO.N,Net-(J1-Pin_36)*%
X136144000Y-104902000D03*
%TO.P,J1,37,Pin_37*%
%TO.N,GND*%
X133604000Y-107442000D03*
%TO.P,J1,38,Pin_38*%
%TO.N,Net-(J1-Pin_38)*%
X133604000Y-104902000D03*
%TO.P,J1,39,Pin_39*%
%TO.N,GND*%
X131064000Y-107442000D03*
%TO.P,J1,40,Pin_40*%
%TO.N,Net-(J1-Pin_40)*%
X131064000Y-104902000D03*
%TO.P,J1,41,Pin_41*%
%TO.N,GND*%
X128524000Y-107442000D03*
%TO.P,J1,42,Pin_42*%
%TO.N,Net-(J1-Pin_42)*%
X128524000Y-104902000D03*
%TO.P,J1,43,Pin_43*%
%TO.N,GND*%
X125984000Y-107442000D03*
%TO.P,J1,44,Pin_44*%
%TO.N,Net-(J1-Pin_44)*%
X125984000Y-104902000D03*
%TO.P,J1,45,Pin_45*%
%TO.N,GND*%
X123444000Y-107442000D03*
%TO.P,J1,46,Pin_46*%
%TO.N,Net-(J1-Pin_46)*%
X123444000Y-104902000D03*
%TO.P,J1,47,Pin_47*%
%TO.N,GND*%
X120904000Y-107442000D03*
%TO.P,J1,48,Pin_48*%
%TO.N,Net-(J1-Pin_48)*%
X120904000Y-104902000D03*
%TO.P,J1,49,Pin_49*%
%TO.N,GND*%
X118364000Y-107442000D03*
%TO.P,J1,50,Pin_50*%
%TO.N,Net-(J1-Pin_50)*%
X118364000Y-104902000D03*
%TD*%
D12*
%TO.P,D1,1,K*%
%TO.N,GND*%
X134366000Y-91694000D03*
D13*
%TO.P,D1,2,A*%
%TO.N,Net-(D1-A)*%
X134366000Y-94234000D03*
%TD*%
D14*
%TO.P,R6,1*%
%TO.N,Net-(J1-Pin_12)*%
X166624000Y-100901000D03*
%TO.P,R6,2*%
%TO.N,+2.85V*%
X166624000Y-99251000D03*
%TD*%
%TO.P,R17,1*%
%TO.N,Net-(J1-Pin_46)*%
X123444000Y-100901000D03*
%TO.P,R17,2*%
%TO.N,+2.85V*%
X123444000Y-99251000D03*
%TD*%
%TO.P,R7,1*%
%TO.N,Net-(J1-Pin_14)*%
X164084000Y-100901000D03*
%TO.P,R7,2*%
%TO.N,+2.85V*%
X164084000Y-99251000D03*
%TD*%
%TO.P,R1,1*%
%TO.N,Net-(J1-Pin_2)*%
X179324000Y-100901000D03*
%TO.P,R1,2*%
%TO.N,+2.85V*%
X179324000Y-99251000D03*
%TD*%
%TO.P,R8,1*%
%TO.N,Net-(J1-Pin_16)*%
X161544000Y-100901000D03*
%TO.P,R8,2*%
%TO.N,+2.85V*%
X161544000Y-99251000D03*
%TD*%
D15*
%TO.P,U1,1,GND*%
%TO.N,GND*%
X151144000Y-92252000D03*
%TO.P,U1,2,VO*%
%TO.N,+2.85V*%
X148844000Y-92252000D03*
D16*
X148844000Y-98552000D03*
D15*
%TO.P,U1,3,VI*%
%TO.N,TRM_PWR*%
X146544000Y-92252000D03*
%TD*%
D14*
%TO.P,R16,1*%
%TO.N,Net-(J1-Pin_44)*%
X125984000Y-100901000D03*
%TO.P,R16,2*%
%TO.N,+2.85V*%
X125984000Y-99251000D03*
%TD*%
%TO.P,R14,1*%
%TO.N,Net-(J1-Pin_40)*%
X131064000Y-100901000D03*
%TO.P,R14,2*%
%TO.N,+2.85V*%
X131064000Y-99251000D03*
%TD*%
%TO.P,R18,1*%
%TO.N,Net-(J1-Pin_48)*%
X120904000Y-100901000D03*
%TO.P,R18,2*%
%TO.N,+2.85V*%
X120904000Y-99251000D03*
%TD*%
D17*
%TO.P,C2,1*%
%TO.N,+2.85V*%
X156464000Y-94902000D03*
%TO.P,C2,2*%
%TO.N,GND*%
X156464000Y-92202000D03*
%TD*%
D18*
%TO.P,R10,1*%
%TO.N,Net-(D1-A)*%
X138684000Y-93726000D03*
%TO.P,R10,2*%
%TO.N,TRM_PWR*%
X138684000Y-95376000D03*
%TD*%
D14*
%TO.P,R12,1*%
%TO.N,Net-(J1-Pin_36)*%
X136144000Y-100901000D03*
%TO.P,R12,2*%
%TO.N,+2.85V*%
X136144000Y-99251000D03*
%TD*%
D19*
%TO.P,C4,1*%
%TO.N,+2.85V*%
X159004000Y-97790000D03*
%TO.P,C4,2*%
%TO.N,GND*%
X159004000Y-96240000D03*
%TD*%
D14*
%TO.P,R3,1*%
%TO.N,Net-(J1-Pin_6)*%
X174244000Y-100901000D03*
%TO.P,R3,2*%
%TO.N,+2.85V*%
X174244000Y-99251000D03*
%TD*%
%TO.P,R19,1*%
%TO.N,Net-(J1-Pin_50)*%
X118364000Y-100901000D03*
%TO.P,R19,2*%
%TO.N,+2.85V*%
X118364000Y-99251000D03*
%TD*%
%TO.P,R9,1*%
%TO.N,Net-(J1-Pin_18)*%
X159004000Y-100901000D03*
%TO.P,R9,2*%
%TO.N,+2.85V*%
X159004000Y-99251000D03*
%TD*%
%TO.P,R15,1*%
%TO.N,Net-(J1-Pin_42)*%
X128524000Y-100901000D03*
%TO.P,R15,2*%
%TO.N,+2.85V*%
X128524000Y-99251000D03*
%TD*%
%TO.P,R13,1*%
%TO.N,Net-(J1-Pin_38)*%
X133604000Y-100901000D03*
%TO.P,R13,2*%
%TO.N,+2.85V*%
X133604000Y-99251000D03*
%TD*%
%TO.P,R4,1*%
%TO.N,Net-(J1-Pin_8)*%
X171704000Y-100901000D03*
%TO.P,R4,2*%
%TO.N,+2.85V*%
X171704000Y-99251000D03*
%TD*%
%TO.P,R5,1*%
%TO.N,Net-(J1-Pin_10)*%
X169164000Y-100901000D03*
%TO.P,R5,2*%
%TO.N,+2.85V*%
X169164000Y-99251000D03*
%TD*%
D17*
%TO.P,C1,1*%
%TO.N,TRM_PWR*%
X141224000Y-94902000D03*
%TO.P,C1,2*%
%TO.N,GND*%
X141224000Y-92202000D03*
%TD*%
D14*
%TO.P,R2,1*%
%TO.N,Net-(J1-Pin_4)*%
X176784000Y-100901000D03*
%TO.P,R2,2*%
%TO.N,+2.85V*%
X176784000Y-99251000D03*
%TD*%
%TO.P,R11,1*%
%TO.N,Net-(J1-Pin_32)*%
X139446000Y-100901000D03*
%TO.P,R11,2*%
%TO.N,+2.85V*%
X139446000Y-99251000D03*
%TD*%
D19*
%TO.P,C3,1*%
%TO.N,+2.85V*%
X131064000Y-97790000D03*
%TO.P,C3,2*%
%TO.N,GND*%
X131064000Y-96240000D03*
%TD*%
D20*
%TO.N,GND*%
X159004000Y-94996000D03*
X156464000Y-90678000D03*
X141224000Y-90932000D03*
X151130000Y-89916000D03*
X131064000Y-95250000D03*
%TD*%
D21*
%TO.N,+2.85V*%
X120904000Y-99251000D02*
X118364000Y-99251000D01*
X123444000Y-99251000D02*
X120904000Y-99251000D01*
X125984000Y-99251000D02*
X123444000Y-99251000D01*
X128524000Y-99251000D02*
X125984000Y-99251000D01*
X131064000Y-99251000D02*
X128524000Y-99251000D01*
X136144000Y-99251000D02*
X139446000Y-99251000D01*
X133604000Y-99251000D02*
X136144000Y-99251000D01*
X131064000Y-99251000D02*
X133604000Y-99251000D01*
X131064000Y-99251000D02*
X131064000Y-97790000D01*
X148844000Y-92252000D02*
X148844000Y-90297000D01*
X148844000Y-90297000D02*
X148209000Y-89662000D01*
X132334000Y-97536000D02*
X132080000Y-97790000D01*
X148209000Y-89662000D02*
X133096000Y-89662000D01*
X133096000Y-89662000D02*
X132334000Y-90424000D01*
X132334000Y-90424000D02*
X132334000Y-97536000D01*
X132080000Y-97790000D02*
X131064000Y-97790000D01*
X159004000Y-97790000D02*
X159004000Y-99251000D01*
X176784000Y-99251000D02*
X179324000Y-99251000D01*
X174244000Y-99251000D02*
X176784000Y-99251000D01*
X171704000Y-99251000D02*
X174244000Y-99251000D01*
X169164000Y-99251000D02*
X171704000Y-99251000D01*
X166624000Y-99251000D02*
X169164000Y-99251000D01*
X164084000Y-99251000D02*
X166624000Y-99251000D01*
X161544000Y-99251000D02*
X164084000Y-99251000D01*
X159004000Y-99251000D02*
X161544000Y-99251000D01*
X156464000Y-97727000D02*
X157988000Y-99251000D01*
X157988000Y-99251000D02*
X159004000Y-99251000D01*
D22*
%TO.N,Net-(J1-Pin_2)*%
X179324000Y-100901000D02*
X179324000Y-104902000D01*
%TO.N,Net-(J1-Pin_4)*%
X176784000Y-100901000D02*
X176784000Y-104902000D01*
%TO.N,Net-(J1-Pin_6)*%
X174244000Y-100901000D02*
X174244000Y-104902000D01*
%TO.N,Net-(J1-Pin_8)*%
X171704000Y-100901000D02*
X171704000Y-104902000D01*
%TO.N,Net-(J1-Pin_10)*%
X169164000Y-100901000D02*
X169164000Y-104902000D01*
%TO.N,Net-(J1-Pin_12)*%
X166624000Y-100901000D02*
X166624000Y-104902000D01*
%TO.N,Net-(J1-Pin_14)*%
X164084000Y-100901000D02*
X164084000Y-104902000D01*
%TO.N,Net-(J1-Pin_16)*%
X161544000Y-100901000D02*
X161544000Y-104902000D01*
%TO.N,Net-(J1-Pin_18)*%
X159004000Y-100901000D02*
X159004000Y-104902000D01*
%TO.N,Net-(J1-Pin_50)*%
X118364000Y-100901000D02*
X118364000Y-104902000D01*
%TO.N,Net-(J1-Pin_48)*%
X120904000Y-100901000D02*
X120904000Y-104902000D01*
%TO.N,Net-(J1-Pin_46)*%
X123444000Y-100901000D02*
X123444000Y-104902000D01*
%TO.N,Net-(J1-Pin_44)*%
X125984000Y-100901000D02*
X125984000Y-104902000D01*
%TO.N,Net-(J1-Pin_42)*%
X128524000Y-100901000D02*
X128524000Y-104902000D01*
%TO.N,Net-(J1-Pin_40)*%
X131064000Y-100901000D02*
X131064000Y-104902000D01*
%TO.N,Net-(J1-Pin_38)*%
X133604000Y-100901000D02*
X133604000Y-104902000D01*
%TO.N,Net-(J1-Pin_36)*%
X136144000Y-100901000D02*
X136144000Y-104902000D01*
%TO.N,Net-(J1-Pin_32)*%
X139446000Y-101854000D02*
X141224000Y-103632000D01*
X139446000Y-100901000D02*
X139446000Y-101854000D01*
X141224000Y-103632000D02*
X141224000Y-104902000D01*
D21*
%TO.N,TRM_PWR*%
X148844000Y-102362000D02*
X148844000Y-104902000D01*
D22*
%TO.N,Net-(D1-A)*%
X138684000Y-93726000D02*
X134874000Y-93726000D01*
X134874000Y-93726000D02*
X134366000Y-94234000D01*
%TO.N,TRM_PWR*%
X138684000Y-95376000D02*
X139574000Y-95376000D01*
X139574000Y-95376000D02*
X140048000Y-94902000D01*
X140048000Y-94902000D02*
X141224000Y-94902000D01*
D21*
%TO.N,GND*%
X159004000Y-96240000D02*
X159004000Y-94996000D01*
X156464000Y-92202000D02*
X156464000Y-90678000D01*
%TO.N,+2.85V*%
X156464000Y-94902000D02*
X156464000Y-96012000D01*
X156464000Y-96012000D02*
X154749000Y-97727000D01*
%TO.N,GND*%
X141224000Y-90932000D02*
X141224000Y-92202000D01*
X151144000Y-92252000D02*
X151144000Y-89930000D01*
X151144000Y-89930000D02*
X151130000Y-89916000D01*
D23*
%TO.N,+2.85V*%
X148844000Y-98552000D02*
X148844000Y-92252000D01*
D22*
%TO.N,TRM_PWR*%
X146544000Y-92252000D02*
X146544000Y-93232000D01*
D21*
X146544000Y-93232000D02*
X144874000Y-94902000D01*
X144874000Y-94902000D02*
X141224000Y-94902000D01*
X148844000Y-102362000D02*
X147574000Y-101092000D01*
X147574000Y-101092000D02*
X142494000Y-101092000D01*
X142494000Y-101092000D02*
X141224000Y-99822000D01*
X141224000Y-99822000D02*
X141224000Y-94902000D01*
%TO.N,+2.85V*%
X154749000Y-97727000D02*
X153924000Y-98552000D01*
X156464000Y-97727000D02*
X154749000Y-97727000D01*
X153924000Y-98552000D02*
X148844000Y-98552000D01*
%TO.N,GND*%
X131064000Y-96240000D02*
X131064000Y-95250000D01*
%TD*%
%TA.AperFunction,Conductor*%
%TO.N,+2.85V*%
G36*
X150092797Y-92477638D02*
G01*
X150133956Y-92534288D01*
X150139501Y-92569300D01*
X150139501Y-92940562D01*
X150142309Y-92976260D01*
X150186680Y-93128990D01*
X150201995Y-93154885D01*
X150267644Y-93265891D01*
X150267646Y-93265893D01*
X150267648Y-93265896D01*
X150380103Y-93378351D01*
X150380106Y-93378353D01*
X150380109Y-93378356D01*
X150517008Y-93459318D01*
X150669742Y-93503691D01*
X150705433Y-93506500D01*
X151582566Y-93506499D01*
X151618258Y-93503691D01*
X151694625Y-93481504D01*
X151770990Y-93459319D01*
X151770992Y-93459318D01*
X151907891Y-93378356D01*
X152020356Y-93265891D01*
X152101318Y-93128992D01*
X152145691Y-92976258D01*
X152148500Y-92940567D01*
X152148500Y-92569300D01*
X152170138Y-92502704D01*
X152226788Y-92461545D01*
X152261800Y-92456000D01*
X153810700Y-92456000D01*
X153877296Y-92477638D01*
X153918455Y-92534288D01*
X153924000Y-92569300D01*
X153924000Y-99962700D01*
X153902362Y-100029296D01*
X153845712Y-100070455D01*
X153810700Y-100076000D01*
X145147300Y-100076000D01*
X145080704Y-100054362D01*
X145039545Y-99997712D01*
X145034000Y-99962700D01*
X145034000Y-95599291D01*
X145055638Y-95532695D01*
X145103941Y-95494615D01*
X145175022Y-95465173D01*
X145175025Y-95465170D01*
X145175027Y-95465170D01*
X145227065Y-95430399D01*
X145279108Y-95395625D01*
X147037625Y-93637108D01*
X147107173Y-93533021D01*
X147112868Y-93519269D01*
X147158340Y-93466025D01*
X147169105Y-93460433D01*
X147170988Y-93459318D01*
X147170992Y-93459318D01*
X147307891Y-93378356D01*
X147420356Y-93265891D01*
X147501318Y-93128992D01*
X147545691Y-92976258D01*
X147548500Y-92940567D01*
X147548500Y-92569300D01*
X147570138Y-92502704D01*
X147626788Y-92461545D01*
X147661800Y-92456000D01*
X150026201Y-92456000D01*
X150092797Y-92477638D01*
G37*
%TD.AperFunction*%
%TD*%
D24*
X114549296Y-89918700D02*
X114551226Y-110986711D01*
X181599771Y-112525756D02*
X116138760Y-112522000D01*
X183134000Y-89916000D02*
X183133789Y-111001756D01*
X116073296Y-88394667D02*
X181610000Y-88392000D01*
X114549296Y-89918667D02*
G75*
G02*
X116073296Y-88394667I1523999J1D01*
G01*
X116075226Y-112523326D02*
G75*
G02*
X114551226Y-110999326I-1J1523999D01*
G01*
X183133789Y-111001756D02*
G75*
G02*
X181609789Y-112525756I-1523999J-1D01*
G01*
X181610000Y-88392000D02*
G75*
G02*
X183134000Y-89916000I0J-1524000D01*
G01*
M02*
